<svg width="22" height="22" viewBox="0 0 22 22" fill="none" xmlns="http://www.w3.org/2000/svg">
<rect y="5" width="4" height="17" fill="#F4D079"/>
<rect x="18" y="5" width="4" height="17" fill="#F4D079"/>
<line x1="20" y1="6.5" x2="22" y2="6.5" stroke="#886D2C"/>
<line x1="20" y1="12.5" x2="22" y2="12.5" stroke="#C9BA8F"/>
<line x1="20" y1="18.5" x2="22" y2="18.5" stroke="#886D2C"/>
<line x1="20" y1="8.5" x2="22" y2="8.5" stroke="#C9BA8F"/>
<line x1="20" y1="14.5" x2="22" y2="14.5" stroke="#886D2C"/>
<line x1="20" y1="20.5" x2="22" y2="20.5" stroke="#C9BA8F"/>
<line x1="20" y1="9.5" x2="22" y2="9.5" stroke="#DACA9F"/>
<line x1="20" y1="15.5" x2="22" y2="15.5" stroke="#967D3E"/>
<line x1="20" y1="10.5" x2="22" y2="10.5" stroke="#886D2C"/>
<line x1="20" y1="16.5" x2="22" y2="16.5" stroke="#C9BA8F"/>
<line x1="20" y1="5.5" x2="22" y2="5.5" stroke="#C9BA8F"/>
<line x1="20" y1="11.5" x2="22" y2="11.5" stroke="#967D3E"/>
<line x1="20" y1="17.5" x2="22" y2="17.5" stroke="#DACA9F"/>
<line x1="20" y1="21.5" x2="22" y2="21.5" stroke="#DACA9F"/>
<line x1="20" y1="7.5" x2="22" y2="7.5" stroke="#967D3E"/>
<line x1="20" y1="13.5" x2="22" y2="13.5" stroke="#DACA9F"/>
<line x1="20" y1="19.5" x2="22" y2="19.5" stroke="#967D3E"/>
<rect x="4" y="10" width="2" height="7" fill="#F6DC86"/>
<rect x="16" y="10" width="2" height="7" fill="#F6DC86"/>
<path d="M11 7H14L16 9V18L14 20H11H8L6 18V9L8 7H11Z" fill="#F6DB8B"/>
<rect x="10" width="2" height="10" fill="#D9D9D9"/>
<line x1="2.5" y1="5" x2="2.5" y2="22" stroke="#916D22"/>
<line x1="19.5" y1="5" x2="19.5" y2="22" stroke="#916D22"/>
<line y1="6.5" x2="2" y2="6.5" stroke="#886D2C"/>
<line y1="12.5" x2="2" y2="12.5" stroke="#C9BA8F"/>
<line y1="18.5" x2="2" y2="18.5" stroke="#886D2C"/>
<line y1="8.5" x2="2" y2="8.5" stroke="#C9BA8F"/>
<line y1="14.5" x2="2" y2="14.5" stroke="#886D2C"/>
<line y1="20.5" x2="2" y2="20.5" stroke="#C9BA8F"/>
<line y1="21.5" x2="2" y2="21.5" stroke="#DACA9F"/>
<line y1="9.5" x2="2" y2="9.5" stroke="#DACA9F"/>
<line y1="15.5" x2="2" y2="15.5" stroke="#967D3E"/>
<line y1="10.5" x2="2" y2="10.5" stroke="#886D2C"/>
<line y1="16.5" x2="2" y2="16.5" stroke="#C9BA8F"/>
<line y1="5.5" x2="2" y2="5.5" stroke="#C9BA8F"/>
<line y1="11.5" x2="2" y2="11.5" stroke="#967D3E"/>
<line y1="17.5" x2="2" y2="17.5" stroke="#DACA9F"/>
<line y1="7.5" x2="2" y2="7.5" stroke="#967D3E"/>
<line y1="13.5" x2="2" y2="13.5" stroke="#DACA9F"/>
<line y1="19.5" x2="2" y2="19.5" stroke="#967D3E"/>
<line x1="8.5" y1="11" x2="8.5" y2="16" stroke="#CDA45C"/>
<line x1="7.5" y1="11" x2="7.5" y2="16" stroke="#CDA45C"/>
<line x1="13.5" y1="11" x2="13.5" y2="16" stroke="#CDA45C"/>
<line x1="14.5" y1="11" x2="14.5" y2="16" stroke="#CDA45C"/>
<line x1="9" y1="16.5" x2="13" y2="16.5" stroke="#CDA45C"/>
<line x1="9" y1="17.5" x2="13" y2="17.5" stroke="#CDA45C"/>
<line x1="9" y1="10.5" x2="13" y2="10.5" stroke="#CDA45C"/>
<line x1="9" y1="9.5" x2="13" y2="9.5" stroke="#CDA45C"/>
<rect x="9" y="11" width="4" height="5" fill="#F0B960"/>
<line x1="10.5" x2="10.5" y2="9" stroke="#DEDBCA"/>
<line x1="11.5" y1="4.5339e-09" x2="11.5" y2="9" stroke="#C9BA8F"/>
<path d="M11 7H14L16 9V18L14 20H11H8L6 18V9L8 7H11Z" fill="url(#paint0_linear_7_156)"/>
<g style="mix-blend-mode:multiply">
<rect x="16" y="10" width="2" height="7" fill="#F4A639" fill-opacity="0.75"/>
</g>
<g style="mix-blend-mode:multiply">
<rect x="18" y="5" width="4" height="17" fill="#F3A438" fill-opacity="0.7"/>
</g>
<defs>
<linearGradient id="paint0_linear_7_156" x1="6" y1="13" x2="14.5" y2="13" gradientUnits="userSpaceOnUse">
<stop stop-color="#F7E699" stop-opacity="0"/>
<stop offset="0.990788" stop-color="#E8982A" stop-opacity="0.57"/>
</linearGradient>
</defs>
</svg>
