<svg width="13" height="17" viewBox="0 0 13 17" fill="none" xmlns="http://www.w3.org/2000/svg">
<rect x="1" y="5" width="2" height="12" fill="#E79C21"/>
<rect x="3" y="6" width="2" height="9" fill="#E7E794"/>
<rect x="11" y="5" width="2" height="11" fill="#E79C21"/>
<rect x="8" y="6" width="3" height="9" fill="#6B6B00"/>
<rect x="5" y="7" width="3" height="8" fill="#E79C21"/>
<line x1="0.5" y1="16" x2="0.5" y2="5" stroke="#E7E794"/>
<line y1="6.5" x2="2" y2="6.5" stroke="#6B6B00"/>
<line x1="11" y1="6.5" x2="13" y2="6.5" stroke="#6B6B00"/>
<line x1="11" y1="8.5" x2="13" y2="8.5" stroke="#6B6B00"/>
<line x1="11" y1="10.5" x2="13" y2="10.5" stroke="#6B6B00"/>
<line x1="11" y1="12.5" x2="13" y2="12.5" stroke="#6B6B00"/>
<line x1="11" y1="14.5" x2="13" y2="14.5" stroke="#6B6B00"/>
<line y1="8.5" x2="2" y2="8.5" stroke="#6B6B00"/>
<line y1="10.5" x2="2" y2="10.5" stroke="#6B6B00"/>
<line y1="12.5" x2="2" y2="12.5" stroke="#6B6B00"/>
<line y1="14.5" x2="2" y2="14.5" stroke="#6B6B00"/>
<line y1="16.5" x2="3" y2="16.5" stroke="#6B6B00"/>
<line x1="2" y1="15.5" x2="3" y2="15.5" stroke="#E7E794"/>
<line x1="10" y1="5.5" x2="11" y2="5.5" stroke="#E7E794"/>
<line x1="6" y1="9.5" x2="7" y2="9.5" stroke="#E7E794"/>
<line x1="6" y1="13.5" x2="7" y2="13.5" stroke="#6B6B00"/>
<line x1="10" y1="16.5" x2="13" y2="16.5" stroke="#6B6B00"/>
<line x1="2" y1="6.5" x2="3" y2="6.5" stroke="#E7E794"/>
<rect x="5" y="5" width="3" height="2" fill="#6B6B00"/>
<line x1="6.5" y1="8" x2="6.5" stroke="#E7E794"/>
<line x1="5.5" y1="13" x2="5.5" y2="9" stroke="#E7E794"/>
<line x1="8.5" y1="14" x2="8.5" y2="9" stroke="#E79C21"/>
<line x1="7.5" y1="14" x2="7.5" y2="10" stroke="#6B6B00"/>
<line x1="3" y1="15.5" x2="11" y2="15.5" stroke="#6B6B00"/>
<line x1="4.5" y1="14" x2="4.5" y2="9" stroke="#E79C21"/>
</svg>
