<svg width="17" height="13" viewBox="0 0 17 13" fill="none" xmlns="http://www.w3.org/2000/svg">
<rect width="2" height="12" transform="matrix(0 1 1 0 5 1)" fill="#E79C21"/>
<rect width="2" height="9" transform="matrix(0 1 1 0 6 3)" fill="#E7E794"/>
<rect width="2" height="11" transform="matrix(0 1 1 0 5 11)" fill="#E79C21"/>
<rect width="3" height="9" transform="matrix(0 1 1 0 6 8)" fill="#6B6B00"/>
<rect width="3" height="8" transform="matrix(0 1 1 0 7 5)" fill="#E79C21"/>
<line y1="-0.5" x2="11" y2="-0.5" transform="matrix(-1 0 0 1 16 1)" stroke="#E7E794"/>
<line y1="-0.5" x2="2" y2="-0.5" transform="matrix(0 1 1 0 7 0)" stroke="#6B6B00"/>
<line y1="-0.5" x2="2" y2="-0.5" transform="matrix(0 1 1 0 7 11)" stroke="#6B6B00"/>
<line y1="-0.5" x2="2" y2="-0.5" transform="matrix(0 1 1 0 9 11)" stroke="#6B6B00"/>
<line y1="-0.5" x2="2" y2="-0.5" transform="matrix(0 1 1 0 11 11)" stroke="#6B6B00"/>
<line y1="-0.5" x2="2" y2="-0.5" transform="matrix(0 1 1 0 13 11)" stroke="#6B6B00"/>
<line y1="-0.5" x2="2" y2="-0.5" transform="matrix(0 1 1 0 15 11)" stroke="#6B6B00"/>
<line y1="-0.5" x2="2" y2="-0.5" transform="matrix(0 1 1 0 9 0)" stroke="#6B6B00"/>
<line y1="-0.5" x2="2" y2="-0.5" transform="matrix(0 1 1 0 11 0)" stroke="#6B6B00"/>
<line y1="-0.5" x2="2" y2="-0.5" transform="matrix(0 1 1 0 13 0)" stroke="#6B6B00"/>
<line y1="-0.5" x2="2" y2="-0.5" transform="matrix(0 1 1 0 15 0)" stroke="#6B6B00"/>
<line y1="-0.5" x2="3" y2="-0.5" transform="matrix(0 1 1 0 17 0)" stroke="#6B6B00"/>
<line y1="-0.5" x2="1" y2="-0.5" transform="matrix(0 1 1 0 16 2)" stroke="#E7E794"/>
<line y1="-0.5" x2="1" y2="-0.5" transform="matrix(0 1 1 0 6 10)" stroke="#E7E794"/>
<line y1="-0.5" x2="1" y2="-0.5" transform="matrix(0 1 1 0 10 6)" stroke="#E7E794"/>
<line y1="-0.5" x2="1" y2="-0.5" transform="matrix(0 1 1 0 14 6)" stroke="#6B6B00"/>
<line y1="-0.5" x2="3" y2="-0.5" transform="matrix(0 1 1 0 17 10)" stroke="#6B6B00"/>
<line y1="-0.5" x2="1" y2="-0.5" transform="matrix(0 1 1 0 7 2)" stroke="#E7E794"/>
<rect width="3" height="2" transform="matrix(0 1 1 0 5 5)" fill="#6B6B00"/>
<line y1="-0.5" x2="8" y2="-0.5" transform="matrix(-1 0 0 1 8 7)" stroke="#E7E794"/>
<line y1="-0.5" x2="4" y2="-0.5" transform="matrix(-1 0 0 1 13 6)" stroke="#E7E794"/>
<line y1="-0.5" x2="5" y2="-0.5" transform="matrix(-1 0 0 1 14 9)" stroke="#E79C21"/>
<line y1="-0.5" x2="4" y2="-0.5" transform="matrix(-1 0 0 1 14 8)" stroke="#6B6B00"/>
<line y1="-0.5" x2="8" y2="-0.5" transform="matrix(0 1 1 0 16 3)" stroke="#6B6B00"/>
<line y1="-0.5" x2="5" y2="-0.5" transform="matrix(-1 0 0 1 14 5)" stroke="#E79C21"/>
</svg>
