<svg width="13" height="17" viewBox="0 0 13 17" fill="none" xmlns="http://www.w3.org/2000/svg">
<rect width="2" height="12" transform="matrix(1 0 0 -1 1 12)" fill="#E79C21"/>
<rect width="2" height="9" transform="matrix(1 0 0 -1 3 11)" fill="#E7E794"/>
<rect width="2" height="11" transform="matrix(1 0 0 -1 11 12)" fill="#E79C21"/>
<rect width="3" height="9" transform="matrix(1 0 0 -1 8 11)" fill="#6B6B00"/>
<rect width="3" height="8" transform="matrix(1 0 0 -1 5 10)" fill="#E79C21"/>
<line y1="-0.5" x2="11" y2="-0.5" transform="matrix(0 1 1 0 1 1)" stroke="#E7E794"/>
<line y1="-0.5" x2="2" y2="-0.5" transform="matrix(1 0 0 -1 0 10)" stroke="#6B6B00"/>
<line y1="-0.5" x2="2" y2="-0.5" transform="matrix(1 0 0 -1 11 10)" stroke="#6B6B00"/>
<line y1="-0.5" x2="2" y2="-0.5" transform="matrix(1 0 0 -1 11 8)" stroke="#6B6B00"/>
<line y1="-0.5" x2="2" y2="-0.5" transform="matrix(1 0 0 -1 11 6)" stroke="#6B6B00"/>
<line y1="-0.5" x2="2" y2="-0.5" transform="matrix(1 0 0 -1 11 4)" stroke="#6B6B00"/>
<line y1="-0.5" x2="2" y2="-0.5" transform="matrix(1 0 0 -1 11 2)" stroke="#6B6B00"/>
<line y1="-0.5" x2="2" y2="-0.5" transform="matrix(1 0 0 -1 0 8)" stroke="#6B6B00"/>
<line y1="-0.5" x2="2" y2="-0.5" transform="matrix(1 0 0 -1 0 6)" stroke="#6B6B00"/>
<line y1="-0.5" x2="2" y2="-0.5" transform="matrix(1 0 0 -1 0 4)" stroke="#6B6B00"/>
<line y1="-0.5" x2="2" y2="-0.5" transform="matrix(1 0 0 -1 0 2)" stroke="#6B6B00"/>
<line y1="-0.5" x2="3" y2="-0.5" transform="matrix(1 0 0 -1 0 0)" stroke="#6B6B00"/>
<line y1="-0.5" x2="1" y2="-0.5" transform="matrix(1 0 0 -1 2 1)" stroke="#E7E794"/>
<line y1="-0.5" x2="1" y2="-0.5" transform="matrix(1 0 0 -1 10 11)" stroke="#E7E794"/>
<line y1="-0.5" x2="1" y2="-0.5" transform="matrix(1 0 0 -1 6 7)" stroke="#E7E794"/>
<line y1="-0.5" x2="1" y2="-0.5" transform="matrix(1 0 0 -1 6 3)" stroke="#6B6B00"/>
<line y1="-0.5" x2="3" y2="-0.5" transform="matrix(1 0 0 -1 10 0)" stroke="#6B6B00"/>
<line y1="-0.5" x2="1" y2="-0.5" transform="matrix(1 0 0 -1 2 10)" stroke="#E7E794"/>
<rect width="3" height="2" transform="matrix(1 0 0 -1 5 12)" fill="#6B6B00"/>
<line y1="-0.5" x2="8" y2="-0.5" transform="matrix(0 1 1 0 7 9)" stroke="#E7E794"/>
<line y1="-0.5" x2="4" y2="-0.5" transform="matrix(0 1 1 0 6 4)" stroke="#E7E794"/>
<line y1="-0.5" x2="5" y2="-0.5" transform="matrix(0 1 1 0 9 3)" stroke="#E79C21"/>
<line y1="-0.5" x2="4" y2="-0.5" transform="matrix(0 1 1 0 8 3)" stroke="#6B6B00"/>
<line y1="-0.5" x2="8" y2="-0.5" transform="matrix(1 0 0 -1 3 1)" stroke="#6B6B00"/>
<line y1="-0.5" x2="5" y2="-0.5" transform="matrix(0 1 1 0 5 3)" stroke="#E79C21"/>
</svg>
